<?xml version="1.0" encoding="UTF-8"?>
<svg width="559px" height="62px" viewBox="0 0 559 62" version="1.1" xmlns="http://www.w3.org/2000/svg" xmlns:xlink="http://www.w3.org/1999/xlink">
    <!-- Generator: Sketch 63.1 (92452) - https://sketch.com -->
    <title>logo_color_Psy</title>
    <desc>Created with Sketch.</desc>
    <defs>
        <path d="M16.9725983,1.21274011 C19.2254616,1.86007206 21.3762443,2.86694763 23.4231557,4.23118298 C27.7062612,7.03045121 31.3245386,11.2485895 34.2860463,16.851162 L34.2860463,30.2721643 C32.976536,30.1196096 31.7355234,30.0547739 30.5388326,29.8221279 C27.3355691,29.2309783 25.2363236,27.4270186 24.2370666,24.4865262 C23.6447651,22.7054497 23.4352434,20.8824208 23.4352434,19.0250668 C23.424605,14.6849493 23.4233294,10.3448316 23.4231765,6.004714 C21.4403556,4.55652876 19.3601853,3.48135729 17.180607,2.77668937 C17.1776142,8.51323517 17.1607217,14.2527495 17.2051985,19.9922639 C17.2172862,21.5178111 17.3542812,23.0586139 17.6443881,24.5498364 C18.3777138,28.4285404 20.5253105,31.4033577 24.2725241,33.2607115 C26.6497887,34.4353829 29.2164287,34.98458 31.8717123,35.1714595 C32.6614478,35.2248536 33.4511832,35.2477368 34.2973281,35.2935032 C33.718698,35.3035872 33.1538208,35.3297298 32.6016677,35.3661387 C33.220239,35.3542769 33.8530163,35.3486138 34.5,35.3491506 L34.5,53.4917571 C32.009916,57.3361363 28.963794,59.1706068 25.3616337,58.9875411 C19.9583933,58.7129426 11.1061045,52.0806257 12.4961999,43.705371 C13.1702844,39.629097 17.2657577,37.0428136 24.7841906,35.9494807 C18.3405488,35.7165403 13.9607526,34.4094651 11.8906018,33.4895436 C7.43423793,31.5254014 3.32439062,27.1547084 1.52733974,20.9152199 C-0.285828198,14.6757315 -2.10705467,0.572046727 6.34230791,0.0686161098 C10.1727144,-0.1703552 13.7211861,0.215791512 16.9725983,1.21274011 Z" id="path-1"></path>
    </defs>
    <g id="Page-1" stroke="none" stroke-width="1" fill="none" fill-rule="evenodd">
        <g id="Artboard" transform="translate(-37.000000, -712.000000)">
            <g id="logo_color_Psy" transform="translate(37.000000, 712.000000)">
                <g id="logo_color" transform="translate(94.000000, 3.000000)" fill-rule="nonzero">
                    <g id="Group">
                        <path d="M0.394,1.764 L9.26,1.764 C14.5093596,1.764 17.9399919,1.9706646 19.552,2.384 C21.1640081,2.7973354 22.64166,3.5206615 23.985,4.554 C25.3283401,5.5873385 26.3719963,6.87899225 27.116,8.429 C27.8600037,9.97900775 28.232,11.7046572 28.232,13.606 C28.232,16.664682 27.4053416,19.1653236 25.752,21.108 C24.0986584,23.0506764 22.0216792,24.2803307 19.521,24.797 C17.0203208,25.3136693 13.1866925,25.572 8.02,25.572 L4.858,25.572 L4.858,46.28 L0.394,46.28 L0.394,1.764 Z M4.858,6.104 L4.858,21.294 L12.36,21.294 C16.8653559,21.3766671 19.8619926,20.6430077 21.35,19.093 C22.8380074,17.5429922 23.582,15.7140105 23.582,13.606 C23.582,8.60464166 19.9653695,6.104 12.732,6.104 L4.858,6.104 Z M54.17,16.954 L51.442,19.744 C49.1686553,17.5533224 46.9573441,16.458 44.808,16.458 C43.4026597,16.458 42.2246715,16.9023289 41.274,17.791 C40.3233286,18.6796711 39.848,19.7749935 39.848,21.077 C39.848,22.3790065 40.3543283,23.4949953 41.367,24.425 C42.3796718,25.3550046 44.1259876,26.4709935 46.606,27.773 C49.0860124,29.0750065 50.9769935,30.4803258 52.279,31.989 C53.5810066,33.4976742 54.232,35.3473224 54.232,37.538 C54.232,40.3073472 53.2710097,42.6426572 51.349,44.544 C49.4269904,46.4453428 47.0606808,47.396 44.25,47.396 C42.3899907,47.396 40.602342,46.9826708 38.887,46.156 C37.1716581,45.3293292 35.7146727,44.1720074 34.516,42.684 L37.182,39.708 C39.3726777,42.1466789 41.6666547,43.366 44.064,43.366 C45.7586752,43.366 47.2053274,42.8080056 48.404,41.692 C49.6026727,40.5759944 50.202,39.2636742 50.202,37.755 C50.202,36.2463258 49.6750053,35.0063382 48.621,34.035 C47.5669948,33.0636618 45.8103457,31.9580062 43.351,30.718 C40.8916544,29.4779938 39.0523395,28.1243407 37.833,26.657 C36.6136606,25.1896593 36.004,23.288345 36.004,20.953 C36.004,18.617655 36.8616581,16.6233416 38.577,14.97 C40.292342,13.3166584 42.5656526,12.49 45.397,12.49 C48.2283475,12.49 51.1526516,13.9779851 54.17,16.954 Z M59.3380001,13.358 L63.8020001,13.358 L75.1480001,38.716 L86.1220001,13.358 L90.6480001,13.358 L70.9940001,58.308 L66.5300001,58.308 L72.8540001,43.8 L59.3380001,13.358 Z M129.482,20.178 L126.134,22.286 C123.240652,18.4419808 119.272692,16.52 114.23,16.52 C110.26198,16.52 106.93468,17.7909873 104.248,20.333 C101.56132,22.8750127 100.218,26.0266479 100.218,29.788 C100.218,33.5493521 101.540654,36.7733199 104.186,39.46 C106.831347,42.1466801 110.179313,43.49 114.23,43.49 C119.066024,43.49 123.033985,41.5680192 126.134,37.724 L129.482,39.956 C127.828659,42.3533453 125.607014,44.1926603 122.817,45.474 C120.026986,46.7553397 117.020016,47.396 113.796,47.396 C108.711975,47.396 104.465017,45.7220167 101.055,42.374 C97.6449831,39.0259833 95.9400001,34.9340242 95.9400001,30.098 C95.9400001,25.2619758 97.6656496,21.1183506 101.117,17.667 C104.568351,14.2156494 109.001306,12.49 114.416,12.49 C117.598683,12.49 120.543653,13.1719932 123.251,14.536 C125.958347,15.9000068 128.035326,17.7806547 129.482,20.178 Z M138.618,0.648 L142.896,0.648 L142.896,19.248 C146.28535,14.7426441 150.397976,12.49 155.234,12.49 C157.714013,12.49 159.94599,13.1616599 161.93,14.505 C163.91401,15.84834 165.319329,17.6049891 166.146,19.775 C166.972671,21.9450108 167.386,25.1379789 167.386,29.354 L167.386,46.28 L163.108,46.28 L163.108,30.594 C163.108,27.2046497 163.004668,24.8693397 162.798,23.588 C162.591332,22.3066603 162.13667,21.0873391 161.434,19.93 C160.73133,18.7726609 159.791006,17.8943363 158.613,17.295 C157.434994,16.6956637 156.009009,16.396 154.335,16.396 C152.660992,16.396 151.059341,16.7886627 149.53,17.574 C148.000659,18.3593373 146.698672,19.4546596 145.624,20.86 C144.549328,22.2653404 143.826002,23.7119926 143.454,25.2 C143.081998,26.6880074 142.896,29.6846441 142.896,34.19 L142.896,46.28 L138.618,46.28 L138.618,0.648 Z M176.088,30.036 C176.088,25.1999758 177.75165,21.0666838 181.079,17.636 C184.40635,14.2053162 188.456976,12.49 193.231,12.49 C198.005024,12.49 202.05565,14.2053162 205.383,17.636 C208.71035,21.0666838 210.374,25.1793094 210.374,29.974 C210.374,34.7686906 208.731017,38.8709829 205.445,42.281 C202.158984,45.691017 198.098024,47.396 193.262,47.396 C188.425976,47.396 184.354683,45.691017 181.048,42.281 C177.741317,38.8709829 176.088,34.7893571 176.088,30.036 Z M206.096,30.098 C206.096,26.4606485 204.825013,23.3090133 202.283,20.643 C199.740988,17.9769867 196.723684,16.644 193.231,16.644 C189.738316,16.644 186.731346,17.9769867 184.21,20.643 C181.688654,23.3090133 180.428,26.4813149 180.428,30.16 C180.428,33.8386851 181.647321,36.9593205 184.086,39.522 C186.524679,42.0846795 189.552315,43.366 193.169,43.366 C196.785685,43.366 199.844321,42.0743462 202.345,39.491 C204.845679,36.9076537 206.096,33.7766851 206.096,30.098 Z M218.828,0.648 L223.044,0.648 L223.044,46.28 L218.828,46.28 L218.828,0.648 Z M231.498,30.036 C231.498,25.1999758 233.16165,21.0666838 236.489,17.636 C239.81635,14.2053162 243.866976,12.49 248.641,12.49 C253.415024,12.49 257.46565,14.2053162 260.793,17.636 C264.12035,21.0666838 265.784,25.1793094 265.784,29.974 C265.784,34.7686906 264.141017,38.8709829 260.855,42.281 C257.568984,45.691017 253.508025,47.396 248.672,47.396 C243.835976,47.396 239.764684,45.691017 236.458,42.281 C233.151317,38.8709829 231.498,34.7893571 231.498,30.036 Z M261.506,30.098 C261.506,26.4606485 260.235013,23.3090133 257.693,20.643 C255.150988,17.9769867 252.133684,16.644 248.641,16.644 C245.148316,16.644 242.141346,17.9769867 239.62,20.643 C237.098654,23.3090133 235.838,26.4813149 235.838,30.16 C235.838,33.8386851 237.057321,36.9593205 239.496,39.522 C241.934679,42.0846795 244.962316,43.366 248.579,43.366 C252.195685,43.366 255.254321,42.0743462 257.755,39.491 C260.25568,36.9076537 261.506,33.7766851 261.506,30.098 Z M303.688,13.358 L307.966,13.358 L307.966,38.778 C307.966,43.2833559 307.573338,46.5899895 306.788,48.698 C306.002663,50.8060105 304.866008,52.5626596 303.378,53.968 C301.889993,55.3733404 300.092011,56.4479963 297.984,57.192 C295.87599,57.9360037 293.561346,58.308 291.04,58.308 C282.442624,58.308 276.780014,54.8773676 274.052,48.016 L278.64,48.016 C281.037346,52.3146882 285.108638,54.464 290.854,54.464 C293.623348,54.464 296.03099,53.926672 298.077,52.852 C300.123011,51.777328 301.569663,50.4030084 302.417,48.729 C303.264338,47.0549916 303.688,44.4406844 303.688,40.886 L303.688,39.46 C301.993325,41.5680105 299.988679,43.1386615 297.674,44.172 C295.359322,45.2053385 292.92068,45.722 290.358,45.722 C285.56331,45.722 281.574683,44.0893497 278.392,40.824 C275.209318,37.5586503 273.618,33.7146888 273.618,29.292 C273.618,24.7039771 275.31265,20.7566832 278.702,17.45 C282.091351,14.1433168 286.193643,12.49 291.009,12.49 C295.824358,12.49 300.050649,14.6806448 303.688,19.062 L303.688,13.358 Z M303.874,29.292 C303.874,25.695982 302.654679,22.6786789 300.216,20.24 C297.777322,17.8013211 294.760018,16.582 291.164,16.582 C287.361315,16.582 284.199346,17.8943202 281.678,20.519 C279.156654,23.1436798 277.896,26.1506497 277.896,29.54 C277.896,32.9293503 279.115322,35.8123214 281.554,38.189 C283.992679,40.5656786 287.113315,41.754 290.916,41.754 C294.718686,41.754 297.828988,40.5966782 300.247,38.282 C302.665012,35.9673218 303.874,32.9706851 303.874,29.292 Z M346.056,46.28 L341.778,46.28 L341.778,40.39 C338.38865,44.8953559 334.276025,47.148 329.44,47.148 C326.959988,47.148 324.72801,46.47634 322.744,45.133 C320.759991,43.7896599 319.354671,42.0330108 318.528,39.863 C317.70133,37.6929891 317.288,34.5000211 317.288,30.284 L317.288,13.358 L321.504,13.358 L321.504,29.044 C321.504,32.8880192 321.679665,35.4919932 322.031,36.856 C322.382336,38.2200068 322.919663,39.3773286 323.643,40.328 C324.366337,41.2786714 325.285995,42.0019975 326.402,42.498 C327.518006,42.9940025 328.871659,43.242 330.463,43.242 C332.054342,43.242 333.614659,42.8493373 335.144,42.064 C336.673341,41.2786627 337.975328,40.1833404 339.05,38.778 C340.124672,37.3726596 340.847999,35.9260074 341.22,34.438 C341.592002,32.9499926 341.778,29.9533559 341.778,25.448 L341.778,13.358 L346.056,13.358 L346.056,46.28 Z M384.394,35.616 L387.99,37.476 C384.435316,44.0893664 379.186035,47.396 372.242,47.396 C367.281976,47.396 363.190017,45.691017 359.966,42.281 C356.741984,38.8709829 355.13,34.7686906 355.13,29.974 C355.13,25.1793094 356.752318,21.0666838 359.997,17.636 C363.241683,14.2053162 367.250977,12.49 372.025,12.49 C376.799024,12.49 380.808318,14.0813174 384.053,17.264 C387.297683,20.4466826 388.982,24.7866392 389.106,30.284 L359.47,30.284 C359.594001,34.2520198 360.844322,37.4449879 363.221,39.863 C365.597679,42.2810121 368.48065,43.49 371.87,43.49 C377.450028,43.49 381.624653,40.8653596 384.394,35.616 Z M384.394,26.626 C383.815331,23.484651 382.368679,21.0253422 380.054,19.248 C377.739322,17.4706578 375.073349,16.582 372.056,16.582 C365.855969,16.582 361.805343,19.9299665 359.904,26.626 L384.394,26.626 Z" id="Psychologue" fill="#1EB9B4"></path>
                        <path d="M395.458,43.934 C395.458,43.3006635 395.685998,42.7623356 396.142,42.319 C396.598002,41.8756645 397.13633,41.654 397.757,41.654 C398.37767,41.654 398.909664,41.8756645 399.353,42.319 C399.796336,42.7623356 400.018,43.3069968 400.018,43.953 C400.018,44.5990032 399.796336,45.1436645 399.353,45.587 C398.909664,46.0303356 398.37767,46.252 397.757,46.252 C397.13633,46.252 396.598002,46.0240023 396.142,45.568 C395.685998,45.1119977 395.458,44.5673365 395.458,43.934 Z M406.149484,25.542 L408.771484,25.542 L408.771484,29.152 C410.848828,26.3906529 413.369469,25.01 416.333484,25.01 C417.853491,25.01 419.221478,25.4216626 420.437484,26.245 C421.65349,27.0683375 422.514815,28.1449934 423.021484,29.475 C423.528153,30.8050067 423.781484,32.7619871 423.781484,35.346 L423.781484,45.72 L421.197484,45.72 L421.197484,36.106 C421.197484,33.7499882 421.089818,32.1540042 420.874484,31.318 C420.659149,30.4819958 420.329819,29.7726696 419.886484,29.19 C419.443148,28.6073304 418.879487,28.1640015 418.195484,27.86 C417.51148,27.5559985 416.681822,27.404 415.706484,27.404 C414.731146,27.404 413.774822,27.6446643 412.837484,28.126 C411.900146,28.6073357 411.102154,29.2786624 410.443484,30.14 C409.784814,31.0013376 409.341485,31.8879954 409.113484,32.8 C408.885483,33.7120046 408.771484,35.5486529 408.771484,38.31 L408.771484,45.72 L406.149484,45.72 L406.149484,25.542 Z M447.050968,39.184 L449.254968,40.324 C447.07629,44.3773536 443.858989,46.404 439.602968,46.404 C436.562953,46.404 434.054978,45.3590105 432.078968,43.269 C430.102958,41.1789896 429.114968,38.6646814 429.114968,35.726 C429.114968,32.7873186 430.109291,30.2666772 432.097968,28.164 C434.086644,26.0613228 436.543953,25.01 439.469968,25.01 C442.395982,25.01 444.853291,25.9853236 446.841968,27.936 C448.830644,29.8866764 449.862967,32.5466498 449.938968,35.916 L431.774968,35.916 C431.850968,38.3480122 432.617294,40.3049926 434.073968,41.787 C435.530642,43.2690074 437.297624,44.01 439.374968,44.01 C442.794985,44.01 445.353626,42.4013494 447.050968,39.184 Z M447.050968,33.674 C446.696299,31.748657 445.809642,30.2413388 444.390968,29.152 C442.972294,28.0626612 441.33831,27.518 439.488968,27.518 C435.688949,27.518 433.206307,29.5699795 432.040968,33.674 L447.050968,33.674 Z M460.402452,42.528 C460.402452,43.2120034 460.491117,43.6173327 460.668452,43.744 C460.845786,43.8706673 461.301781,43.934 462.036452,43.934 L463.594452,43.934 L463.594452,46.138 C462.530446,46.3153342 461.694455,46.404 461.086452,46.404 C459.946446,46.404 459.110454,46.1253361 458.578452,45.568 C458.046449,45.0106639 457.780452,44.1366726 457.780452,42.946 L457.780452,27.746 L454.208452,27.746 L454.208452,25.542 L457.780452,25.542 L457.780452,17.752 L460.402452,17.752 L460.402452,25.542 L464.506452,25.542 L464.506452,27.746 L460.402452,27.746 L460.402452,42.528 Z" id=".net" fill="#0077C8"></path>
                    </g>
                </g>
                <g id="logo_color-copy-9">
                    <mask id="mask-2" fill="white">
                        <use xlink:href="#path-1"></use>
                    </mask>
                    <use id="Combined-Shape" fill="#1EB9B4" fill-rule="nonzero" xlink:href="#path-1"></use>
                    <path d="M57.4725982,1.21274011 C59.7254616,1.86007206 61.8762442,2.86694763 63.9231556,4.23118298 C68.2062612,7.03045121 71.8245385,11.2485895 74.7860463,16.851162 L74.7860463,30.2721643 C73.4765359,30.1196096 72.2355234,30.0547739 71.0388324,29.8221279 C67.835569,29.2309783 65.7363235,27.4270186 64.7370666,24.4865262 C64.144765,22.7054497 63.9352435,20.8824208 63.9352435,19.0250668 C63.9246048,14.6849493 63.9233293,10.3448316 63.9231765,6.004714 C61.9403556,4.55652876 59.8601851,3.48135729 57.6806068,2.77668937 C57.677614,8.51323517 57.6607216,14.2527495 57.7051984,19.9922639 C57.7172862,21.5178111 57.8542812,23.0586139 58.1443879,24.5498364 C58.8777138,28.4285404 61.0253104,31.4033577 64.772524,33.2607115 C67.1497887,34.4353829 69.7164286,34.98458 72.3717123,35.1714595 C73.1614477,35.2248536 73.951183,35.2477368 74.7973281,35.2935032 C74.218698,35.3035872 73.6538206,35.3297298 73.1016676,35.3661387 C73.720239,35.3542769 74.3530162,35.3486138 75,35.3491506 L75,53.4917571 C72.509916,57.3361363 69.463794,59.1706068 65.8616337,58.9875411 C60.4583931,58.7129426 51.6061044,52.0806257 52.9961998,43.705371 C53.6702844,39.629097 57.7657575,37.0428136 65.2841905,35.9494807 C58.8405486,35.7165403 54.4607526,34.4094651 52.3906017,33.4895436 C47.9342379,31.5254014 43.8243906,27.1547084 42.0273397,20.9152199 C40.2141718,14.6757315 38.3929453,0.572046727 46.8423078,0.0686161098 C50.6727144,-0.1703552 54.2211861,0.215791512 57.4725982,1.21274011 Z" id="Path" fill="#0077C8" fill-rule="nonzero" transform="translate(57.750000, 29.500000) scale(-1, 1) translate(-57.750000, -29.500000) "></path>
                </g>
            </g>
        </g>
    </g>
</svg>